<svg xmlns="http://www.w3.org/2000/svg" viewBox="0 0 160 32" width="160" height="32">
  <!-- Three ascending bars -->
  <rect x="2" y="20" width="6" height="12" rx="1.5" fill="#4B7BF5"/>
  <rect x="11" y="14" width="6" height="18" rx="1.5" fill="#4B7BF5"/>
  <rect x="20" y="8" width="6" height="24" rx="1.5" fill="#4B7BF5"/>
  <!-- PILLAR text as paths -->
  <g transform="translate(34, 8)" fill="#FFFFFF">
    <!-- P -->
    <path d="M0,0h5.5c3.2,0,5.2,2,5.2,4.8s-2,4.8-5.2,4.8H3v6.4H0V0zm5.3,7.2c1.5,0,2.4-0.9,2.4-2.4s-0.9-2.4-2.4-2.4H3v4.8h2.3z"/>
    <!-- I -->
    <path d="M13,0h3v16h-3V0z"/>
    <!-- L -->
    <path d="M19,0h3v13.6h6.4V16H19V0z"/>
    <!-- L -->
    <path d="M30,0h3v13.6h6.4V16H30V0z"/>
    <!-- A -->
    <path d="M44.8,0h3.2L53.6,16h-3.2l-1.1-3.2h-5.8L42.4,16h-3.2L44.8,0zm3.9,10.4L46.4,3.6l-2.3,6.8h4.6z"/>
    <!-- R -->
    <path d="M55,0h5.5c3.2,0,5.2,1.8,5.2,4.5c0,2-1,3.5-2.8,4.2l3.4,7.3h-3.4l-3-6.8H58v6.8h-3V0zm5.3,6.8c1.5,0,2.4-0.8,2.4-2.3s-0.9-2.3-2.4-2.3H58v4.6h2.3z"/>
  </g>
</svg>
